<?xml version="1.0" encoding="utf-8"?>
<!-- Generator: Adobe Illustrator 26.0.1, SVG Export Plug-In . SVG Version: 6.00 Build 0)  -->
<svg version="1.1" id="Layer_1" xmlns="http://www.w3.org/2000/svg" xmlns:xlink="http://www.w3.org/1999/xlink" x="0px" y="0px"
	 viewBox="0 0 600 200" style="enable-background:new 0 0 600 200;" xml:space="preserve">
<style type="text/css">
	.st0{fill:#424243;}
	.st1{fill:#434344;}
	.st2{font-family:'Axiforma-Book';}
	.st3{font-size:15px;}
	.st4{fill:#444444;}
	.st5{fill:#504F4F;}
	.st6{font-family:'Goldplay-Thin';}
	.st7{font-size:17.5px;}
</style>
<polygon class="st0" points="376.69,86.54 376.69,86.54 376.69,86.54 "/>
<path class="st0" d="M395.06,132.41c1.08,0,2.16-0.06,3.24-0.19c15.13-1.79,25.94-15.5,24.16-30.62
	c-1.57-13.33-12.51-23.59-25.91-24.31l-3.9-0.21l21.66-17.51l0.13-0.14c0,0,0.09-0.11,0.14-0.17l0.12-0.18
	c0.04-0.06,0.07-0.12,0.1-0.18l0.09-0.21l0.06-0.21c0.01-0.07,0.01-0.13,0-0.2c0-0.08,0-0.15,0-0.23v-0.19c0-0.1,0-0.18,0-0.26
	v-0.21c0-0.06,0-0.13-0.07-0.2s-0.05-0.15-0.08-0.22l-0.1-0.17l-0.13-0.2l-0.16-0.19l-0.14-0.14l-0.16-0.14l-0.19-0.12l-0.17-0.1
	l-0.21-0.08l-0.21-0.07h-0.21h-0.24h-0.12h-39.29c-1.24,0-2.25,1.01-2.25,2.25s1.01,2.25,2.25,2.25h33l-28.16,22.65l-0.19,0.18
	l-0.07,0.1l-0.11,0.16c0,0.05-0.06,0.07-0.07,0.1v0.12l-0.08,0.19c-0.03,0.07-0.06,0.14-0.07,0.22v0.19c-0.01,0.07-0.01,0.13,0,0.2
	v0.22c0,0.15,0,0.2,0,0.24v0.19c0.01,0.08,0.03,0.15,0.06,0.22l0.11,0.29l0.06,0.1l0.15,0.25l0,0l0.15,0.15
	c0.07,0.09,0.15,0.17,0.23,0.24l0.08,0.06l0.31,0.2l0.18,0.08l0.26,0.08c0.06,0.02,0.12,0.04,0.19,0.05c0.09,0.01,0.18,0.01,0.27,0
	h0.21h0.39h0.16c0.08-0.02,0.16-0.05,0.24-0.09l0.15-0.06l0.22-0.14l0.11-0.07c4.01-2.97,8.88-4.58,13.87-4.59
	c12.75,0.09,23.02,10.5,22.93,23.25c-0.08,11.58-8.73,21.31-20.22,22.75c-0.9,0.11-1.8,0.16-2.7,0.16
	c-8.73-0.03-16.71-4.95-20.66-12.74c-0.38-0.76-1.15-1.23-2-1.24c-0.35,0-0.69,0.09-1,0.25c-1.1,0.55-1.55,1.9-1,3
	C375.19,126.47,384.67,132.33,395.06,132.41z"/>
<path class="st0" d="M500.89,75.67V60.18h37c1.24,0,2.25-1.01,2.25-2.25s-1.01-2.25-2.25-2.25h-39.25c-1.24,0-2.25,1.01-2.25,2.25
	v17.74c0,1.24,1.01,2.25,2.25,2.25S500.89,76.91,500.89,75.67z"/>
<path class="st0" d="M483.19,101.51c4.35,6.64,9.08,13.03,14.15,19.14c5.76,7.48,14.09,11.74,22.89,11.74
	c15.22-0.02,27.53-12.37,27.51-27.59c0-0.25,0-0.49-0.01-0.74c-0.39-12.17-8.65-22.66-20.38-25.9c-2.31-0.62-4.7-0.94-7.09-0.94
	c-9.57,0.01-18.46,4.91-23.57,13c-0.31,0.51-0.41,1.12-0.28,1.7c0.13,0.58,0.49,1.09,1,1.4c1.06,0.63,2.43,0.31,3.1-0.73
	c4.26-6.78,11.7-10.9,19.7-10.91c2.03-0.01,4.04,0.26,6,0.79c9.83,2.7,16.74,11.49,17.06,21.67c0.33,10.22-6.14,19.42-15.87,22.56
	c-2.28,0.76-4.67,1.14-7.08,1.14c-5.54-0.05-10.89-2.02-15.14-5.58c-4.3-3.86-10.42-11.69-18.21-23.3l-0.17-0.24l-0.55-0.81
	l-0.1-0.15c-0.27-0.38-0.77-1.15-1.39-2.1c-3.87-5.91-7.56-11.38-10.28-13.37c-5.33-4.31-12.24-6.13-19-5l-4,0.56l16.31-18.46
	c0.39-0.45,0.59-1.03,0.56-1.63c-0.04-0.6-0.31-1.15-0.76-1.55c-0.96-0.73-2.32-0.65-3.18,0.2l-26.65,30.1
	c-0.04,0.07-0.08,0.13-0.13,0.19c-9.85,11.63-8.41,29.04,3.21,38.89c11.34,9.61,28.25,8.51,38.25-2.49c0.4-0.45,0.6-1.03,0.56-1.63
	c-0.04-0.6-0.31-1.15-0.76-1.55c-0.96-0.74-2.31-0.66-3.17,0.2c-4.39,4.96-10.7,7.8-17.32,7.8c-12.76-0.02-23.08-10.38-23.06-23.14
	c0.02-10.31,6.87-19.37,16.78-22.18c2.35-0.68,4.78-1.04,7.22-1.06c4.48-0.05,8.83,1.48,12.28,4.34l0.12,0.09
	c1.58,1.11,4.33,4.77,9.2,12.22c0.66,1,1.19,1.81,1.54,2.31L483.19,101.51z"/>
<text transform="matrix(1 0 0 1 551.8122 55.9168)" class="st1 st2 st3">TM</text>
<path class="st4" d="M47.11,79.17L47.11,79.17c-0.38-1.04-1.36-1.76-2.47-1.81h-0.57c-1.12,0.01-2.09,0.75-2.39,1.83l-23,49.23
	c-0.64,0.81-0.51,1.98,0.29,2.63c0.43,0.34,0.99,0.48,1.54,0.37h3c1.75,0,2.21-1,2.84-2.46l4.21-9.2h27.27l4.09,9.12l0.11,0.21
	c0.67,1.35,1.16,2.33,2.85,2.33h3.16c1,0.22,1.99-0.42,2.21-1.42c0.12-0.56-0.02-1.14-0.38-1.58L47.11,79.17z M54.96,113.17H33.47
	l10.8-23.88L54.96,113.17z"/>
<path class="st4" d="M85.31,72.66l-1.71,0.41c-1.72,0.47-2.56,1.4-2.56,2.83v52.61c-0.13,1.44,0.94,2.71,2.38,2.84
	c0.1,0.01,0.21,0.01,0.31,0.01h2c1.45,0.07,2.68-1.04,2.75-2.49c0.01-0.12,0-0.24-0.01-0.36V75.33c0.1-0.9-0.23-1.8-0.9-2.42
	C86.9,72.46,86.06,72.37,85.31,72.66z"/>
<path class="st4" d="M108.29,72.66l-1.72,0.41c-1.71,0.47-2.55,1.4-2.55,2.83v52.61c-0.13,1.44,0.94,2.71,2.38,2.84
	c0.1,0.01,0.21,0.01,0.31,0.01h2c1.44,0.08,2.68-1.02,2.77-2.47c0.01-0.13,0.01-0.26-0.01-0.38V75.33c0.1-0.9-0.23-1.8-0.9-2.42
	C109.9,72.46,109.05,72.36,108.29,72.66z"/>
<path class="st4" d="M141.26,106.81l-1-0.43c-4.6-2-7.39-3.43-7.39-6.27s2.57-4.68,6.55-4.68c3.28,0,5.35,0.94,8.24,3.75
	c1.33,1.25,2.81,1.19,4.18-0.17l0.58-0.58c1.28-1.37,1.23-2.78-0.16-4.17c-3.29-3.49-7.89-5.43-12.68-5.34
	c-8.49,0-14.19,4.73-14.19,11.76s6.28,9.62,11.81,11.88l0.76,0.31c4.79,2,8.57,3.52,8.57,7.57c0,3.24-3.08,5.33-7.84,5.33
	c-3.83-0.01-7.45-1.7-9.92-4.62c-1.73-1.83-3.21-0.94-4.2-0.09l-0.53,0.53c-1.41,1.1-1.49,2.48-0.23,4.12c3.43,4,9.4,6.65,15.2,6.65
	c9,0,15-4.82,15-12C154,112.25,147.81,109.61,141.26,106.81z"/>
<path class="st4" d="M187.58,88.92c-5.27-0.08-10.38,1.87-14.25,5.45v-2c0.17-1.39-0.81-2.66-2.21-2.84
	c-0.16-0.02-0.32-0.02-0.47-0.01h-1.78c-1.43-0.06-2.64,1.06-2.7,2.5c0,0.12,0,0.24,0.01,0.35v51.59c-0.14,1.43,0.91,2.7,2.34,2.84
	c0.12,0.01,0.24,0.01,0.35,0.01h2c1.41,0.09,2.62-0.98,2.7-2.39c0.01-0.15,0.01-0.31-0.01-0.46v-16.98c3.79,3.54,8.81,5.47,14,5.38
	c12,0,21-9.34,21-21.72S199.54,88.92,187.58,88.92z M201.01,110.64c0,8.68-6,15-14.16,15c-6.42,0-13.92-3.92-13.92-15
	s7.5-15,13.92-15C195.05,95.67,201.01,101.97,201.01,110.64L201.01,110.64z"/>
<path class="st4" d="M237.04,88.92c-5.68-0.11-11.23,1.7-15.76,5.12c-0.73,0.48-1.23,1.23-1.39,2.09c-0.1,0.78,0.13,1.57,0.63,2.18
	l0.49,0.65c1.41,1.83,2.84,1.37,3.78,0.66c3.43-2.62,7.61-4.06,11.93-4.11c6.43,0,10.59,3.65,10.59,9.3v2.46
	c-3.67-1.71-7.68-2.61-11.73-2.64c-10.57,0-17.67,5.64-17.67,14c0,8.2,6.52,13.7,16.21,13.7c5.04,0.03,9.88-1.97,13.44-5.54v1.72
	c-0.16,1.41,0.86,2.68,2.27,2.84c0.14,0.02,0.27,0.02,0.41,0.01h1.62c1.19,0,2.61-0.49,2.61-2.85v-22.48
	C254.47,95.16,248.12,88.92,237.04,88.92z M234.85,125.85c-5.79,0-9.54-2.79-9.54-7.11c0-4.69,4.23-7.84,10.52-7.84
	c4.03,0.13,7.98,1.15,11.56,3v2.28C247.39,122.22,241.02,125.85,234.85,125.85z"/>
<path class="st4" d="M288.47,95.67c3,0,6.63,0.34,11.08,4.32c1.75,1.65,3.13,0.87,4.18,0l0.89-0.89c0.62-0.56,0.93-1.38,0.82-2.21
	c-0.15-0.67-0.49-1.28-1-1.74c-4.25-4.18-9.51-6.22-16.06-6.22c-12.57,0-22,9.34-22,21.72s9.48,21.72,22,21.72
	c6.55,0,11.81-2,16.08-6.24c1.6-1.76,1-3.11,0.15-3.93l-0.91-0.9c-0.94-1.15-2.63-1.32-3.77-0.38c-0.14,0.11-0.27,0.24-0.38,0.38
	c-4.46,4-8.06,4.33-11.09,4.33c-8.62,0-14.65-6.12-14.65-14.89S279.83,95.67,288.47,95.67z"/>
<path class="st4" d="M355.34,109.83c0.08-5.74-2.16-11.26-6.22-15.32c-3.88-3.7-9.08-5.71-14.44-5.57
	c-11.93,0-20.92,9.41-20.92,21.88c0,14.16,11,21.56,22,21.56c2.43,0,10.83-0.46,17-6.38c1.14-0.87,1.35-2.49,0.48-3.63
	c-0.1-0.13-0.22-0.26-0.34-0.37l-0.78-0.69c-1.23-1.34-2.6-1.36-4.17-0.05c-3.38,2.91-7.69,4.51-12.15,4.5
	c-6.28,0-13.36-4-14.35-12.85h30.71c1.65,0.1,3.08-1.16,3.18-2.81C355.34,110,355.34,109.92,355.34,109.83z M334.68,95.51
	c3.58-0.16,7.05,1.23,9.52,3.82c1.88,2,3.1,4.53,3.5,7.25h-26.23C322.7,99.73,327.71,95.51,334.68,95.51z"/>
<text transform="matrix(1 0 0 1 368.0522 154.7769)" class="st5 st6 st7">Design </text>
<text transform="matrix(1 0 0 1 426.9922 154.7769)" class="st5 st6 st7">f</text>
<text transform="matrix(1 0 0 1 431.7522 154.7769)" class="st5 st6 st7">o</text>
<text transform="matrix(1 0 0 1 442.7422 154.7769)" class="st5 st6 st7">r</text>
<text transform="matrix(1 0 0 1 447.9722 154.7769)" class="st5 st6 st7"> </text>
<text transform="matrix(1 0 0 1 452.6622 154.7769)" class="st5 st6 st7">ev</text>
<text transform="matrix(1 0 0 1 471.0922 154.7769)" class="st5 st6 st7">er</text>
<text transform="matrix(1 0 0 1 486.9122 154.7769)" class="st5 st6 st7">y</text>
<text transform="matrix(1 0 0 1 495.3522 154.7769)" class="st5 st6 st7"> space</text>
</svg>
